<?xml version="1.0" encoding="utf-8"?>
<!-- Generator: Adobe Illustrator 21.0.2, SVG Export Plug-In . SVG Version: 6.00 Build 0)  -->
<svg version="1.1" id="Ebene_1" xmlns="http://www.w3.org/2000/svg" xmlns:xlink="http://www.w3.org/1999/xlink" x="0px" y="0px"
	 viewBox="0 0 283.5 283.5" style="enable-background:new 0 0 283.5 283.5;" xml:space="preserve">
<style type="text/css">
	.st0{fill:#0074BE;}
</style>
<g>
	<g>
		<g>
			<polygon class="st0" points="115.4,196.5 110.6,196.5 110.6,121.6 78.5,121.6 78.5,196.5 73.7,196.5 73.7,116.8 115.4,116.8 			
				"/>
		</g>
	</g>
	<g>
		<g>
			<polygon class="st0" points="68.4,196.5 63.6,196.5 63.6,153.5 31.5,153.5 31.5,196.5 26.8,196.5 26.8,148.8 68.4,148.8 			"/>
		</g>
	</g>
	<g>
		<g>
			<polygon class="st0" points="162.3,196.5 157.6,196.5 157.6,88.9 125.5,88.9 125.5,196.5 120.7,196.5 120.7,84.1 162.3,84.1 			
				"/>
		</g>
	</g>
	<g>
		<g>
			<path class="st0" d="M206.2,227.9c-21.8,0-39.6-17.8-39.6-39.6c0-21.8,17.8-39.6,39.6-39.6c21.8,0,39.6,17.8,39.6,39.6
				C245.8,210.2,228.1,227.9,206.2,227.9z M206.2,153.5c-19.2,0-34.8,15.6-34.8,34.8c0,19.2,15.6,34.8,34.8,34.8
				s34.8-15.6,34.8-34.8C241,169.1,225.4,153.5,206.2,153.5z"/>
		</g>
	</g>
	<g>
		<g>
			<rect x="203.9" y="170.8" class="st0" width="4.8" height="42.6"/>
		</g>
	</g>
	<g>
		<g>
			<polygon class="st0" points="218.1,186.6 206.2,174.7 194.4,186.6 191,183.2 206.2,168 221.4,183.2 			"/>
		</g>
	</g>
	<g>
		<g>
			<polygon class="st0" points="172.4,179.9 167.7,179.9 167.7,41.6 209.3,41.6 209.3,152.9 204.5,152.9 204.5,46.3 172.4,46.3 			
				"/>
		</g>
	</g>
</g>
</svg>
