<?xml version="1.0" encoding="utf-8"?>
<!-- Generator: Adobe Illustrator 21.0.2, SVG Export Plug-In . SVG Version: 6.00 Build 0)  -->
<svg version="1.1" id="Ebene_1" xmlns="http://www.w3.org/2000/svg" xmlns:xlink="http://www.w3.org/1999/xlink" x="0px" y="0px"
	 viewBox="0 0 283.5 283.5" style="enable-background:new 0 0 283.5 283.5;" xml:space="preserve">
<style type="text/css">
	.st0{fill:#0074BE;}
</style>
<g>
	<g>
		<g>
			<g>
				<path class="st0" d="M192.6,77.7c-0.5,0-1-0.2-1.5-0.5c-0.8-0.6-1.1-1.5-1-2.4l2.8-16.4l-11.9-11.6c-0.7-0.7-0.9-1.6-0.6-2.5
					c0.3-0.9,1.1-1.6,2-1.7l16.4-2.4l7.3-14.9c0.8-1.7,3.6-1.7,4.4,0l7.3,14.9l16.4,2.4c0.9,0.1,1.7,0.8,2,1.7
					c0.3,0.9,0,1.9-0.6,2.5L224,58.5l2.8,16.4c0.2,0.9-0.2,1.9-1,2.4c-0.8,0.6-1.8,0.6-2.6,0.2l-14.7-7.7l-14.7,7.7
					C193.4,77.6,193,77.7,192.6,77.7z M202.8,43.6c-0.4,0.7-1.1,1.2-1.9,1.4l-12.7,1.8l9.2,9c0.6,0.6,0.8,1.4,0.7,2.2l-2.2,12.7
					l11.4-6c0.4-0.2,0.8-0.3,1.2-0.3c0.4,0,0.8,0.1,1.2,0.3l11.4,6L218.9,58c-0.1-0.8,0.1-1.6,0.7-2.2l9.2-9L216,45
					c-0.8-0.1-1.5-0.6-1.9-1.4l-5.7-11.6"/>
			</g>
		</g>
		<g>
			<g>
				<path class="st0" d="M167,138.8c-0.5,0-1-0.1-1.4-0.4c-0.9-0.6-1.3-1.6-1-2.6l4.2-18.2h-11.6c-1.4,0-2.5-1.1-2.5-2.5V50.9
					c0-1.4,1.1-2.5,2.5-2.5h31.5v5h-29.1v59.3h12.2c0.8,0,1.5,0.3,1.9,0.9c0.5,0.6,0.6,1.4,0.5,2.1l-3.5,14.9l24.9-17.5
					c0.4-0.3,0.9-0.4,1.4-0.4h55V53.3h-24.1v-5h26.5c1.4,0,2.5,1.1,2.5,2.5v64.3c0,1.4-1.1,2.5-2.5,2.5H198l-29.6,20.7
					C168,138.7,167.5,138.8,167,138.8z"/>
			</g>
		</g>
		<g>
			<g>
				<rect x="173.5" y="91.1" class="st0" width="64.9" height="5"/>
			</g>
		</g>
	</g>
	<g>
		<g>
			<g>
				<path class="st0" d="M94.8,155.7c-20.9,0-38-20.6-38-45.8v-1.4l1.1-0.7c0.2-0.1,21.5-13.7,32.2-25.8c1.5-1.6,3.6-2.5,5.8-2.5
					c2.2,0.1,4.3,1.1,5.7,2.8c5.7,7.1,17.2,19.8,29.6,25.3l1.5,0.7v1.6C132.8,135.1,115.7,155.7,94.8,155.7z M61.8,111.1
					c0.6,21.9,15.2,39.6,33,39.6c17.8,0,32.3-17.5,33-39.3c-12.8-6.3-24.2-18.9-30-26c-0.5-0.6-1.2-1-2-1c-0.7,0-1.4,0.3-1.9,0.8
					C84,96.3,66.5,108.1,61.8,111.1z"/>
			</g>
		</g>
		<g>
			<g>
				<path class="st0" d="M123.6,159.8l-2.4-4.3l21.6-12.1L139,91.2c0-24.5-19.8-44.3-44.2-44.3S50.6,66.7,50.6,91l-3.8,52.3
					l21.6,12.1l-2.4,4.3l-24.3-13.7l4-55.3c0-26.9,22-48.9,49.1-48.9c27.1,0,49.1,22,49.1,49.1l4,55.1L123.6,159.8z"/>
			</g>
		</g>
		<g>
			<g>
				<path class="st0" d="M94.8,177.2c-11.9,0-23.9-3.8-23.9-11v-22.3h5v22.3c0,2.1,6.7,6.1,18.9,6.1c12.2,0,18.9-4,18.9-6.1v-21.4h5
					v21.4C118.7,173.4,106.7,177.2,94.8,177.2z"/>
			</g>
		</g>
		<g>
			<g>
				<path class="st0" d="M170.7,240.2h-5v-27.1c0-23-18.7-41.7-41.7-41.7h-6.5L94.8,208L72,171.4h-6.6c-23,0-41.7,18.7-41.7,41.7
					v27.1h-5v-27.1c0-25.7,20.9-46.6,46.6-46.6h9.3l20,32.2l20-32.2h9.3c25.7,0,46.6,20.9,46.6,46.6V240.2z"/>
			</g>
		</g>
		<g>
			<g>
				<rect x="42.2" y="209.3" class="st0" width="5" height="30.9"/>
			</g>
		</g>
		<g>
			<g>
				<rect x="142.4" y="209.3" class="st0" width="5" height="30.9"/>
			</g>
		</g>
	</g>
</g>
</svg>
