<svg version="1.1" id="Layer_1" xmlns="http://www.w3.org/2000/svg" xmlns:xlink="http://www.w3.org/1999/xlink" x="0px" y="0px"
	 viewBox="0 0 269.2 199.2" style="enable-background:new 0 0 269.2 199.2;" xml:space="preserve">
<style type="text/css">
	.st0{fill:#808080;}
	.st1{fill:#FFFFFF;}
	.st2{fill:none;stroke:#808080;stroke-width:3;}
</style>
<polyline class="st0" points="64.5,43.8 64.7,43.8 72.3,1.8 93.9,1.8 77,69.8 55,69.8 47.2,30.3 47,30.3 39.2,69.8 17.3,69.8 
	0.4,1.8 22,1.8 29.6,43.8 29.8,43.8 37.9,1.8 56.4,1.8 64.5,43.8 "/>
<path class="st0" d="M108.4,35.4c0,8.7,2.6,19.6,13.3,19.6c9.6,0,13.4-8.3,13.4-19.6c0-9.3-3.8-19.1-13.6-18.8
	C111.4,16.6,108.4,26.8,108.4,35.4 M157.5,35.4c0,23.2-15.6,36.2-35.7,36.2c-21.4,0-35.6-13.2-35.6-36.4C86.1,13.9,100.6,0,121.7,0
	C146,0,157.5,17.5,157.5,35.4z"/>
<polyline class="st0" points="212.2,2.3 269.2,2.3 269.2,20.2 252.2,20.2 252.2,69.8 229.9,69.8 229.9,20.2 212.2,20.2 212.2,2.3 
	"/>
<path class="st0" d="M179,31.2h8.8c6.9,0,10.6-1.7,10.6-6.4c0-4.8-3.8-7.1-9-7.1H179V31.2 M179,46.1v23.7h-22.3v-68h32.1
	c22.7,0,30.1,6.1,30.1,19.4c0,7.8-3.5,14.5-11.4,16.6c7.2,2.6,11.5,4.3,11.5,18c0,8.9-0.3,11.9,2.4,11.9v2.1h-22.6
	c-0.6-1.5-1.1-5.9-1.1-11.9c0-8.9-1.5-11.8-11.9-11.8H179z"/>
<path class="st0" d="M96.2,90.8v11.3h9.3c4.4,0,7.7-2,7.7-6c0-5.3-4.3-5.4-9.1-5.4H96.2 M96.2,114.5v12.6h9.7c5.5,0,9.6-1.1,9.6-6.2
	c0-6-5.2-6.3-12.3-6.3H96.2z M73.9,143v-68h32.5c15.3,0,27.5,3.6,27.5,17.1c0,7-4.5,12.1-8.9,14.8c7.4,1.9,11.3,8.2,11.3,15.6
	c0,15.2-11.6,20.5-29.3,20.5H73.9z"/>
<rect x="138.8" y="74.9" class="st0" width="22.3" height="68"/>
<polyline class="st0" points="165.3,143 165.3,74.9 187.6,74.9 187.6,127.1 201.8,127.1 201.8,143 165.3,143 "/>
<path class="st0" d="M225.5,127.1h4.7c10.4,0,16.1-5.5,16.1-18.3c0-14.2-4.6-18-16.5-18h-4.3V127.1 M203.2,143v-68h29.9
	c21.9,0,35.5,10.2,35.5,32.6c0,25.6-14.3,35.4-36.1,35.4H203.2z"/>
<polyline class="st0" points="5.8,147.6 22.5,147.6 31.3,181 40.4,147.6 57,147.6 39.6,197.8 23,197.8 5.8,147.6 "/>
<polyline class="st0" points="54.7,197.8 54.7,147.6 95.7,147.6 95.7,159.3 71.2,159.3 71.2,166.5 92,166.5 92,178.2 71.2,178.2 
	71.2,186.1 96.7,186.1 96.7,197.8 54.7,197.8 "/>
<path class="st0" d="M114.9,169.3h6.5c5.1,0,7.8-1.3,7.8-4.7c0-3.6-2.8-5.2-6.6-5.2h-7.7V169.3 M114.9,180.3v17.5H98.5v-50.3h23.7
	c16.8,0,22.3,4.5,22.3,14.3c0,5.8-2.6,10.7-8.4,12.3c5.3,2,8.5,3.2,8.5,13.3c0,6.6-0.2,8.8,1.7,8.8v1.5h-16.7
	c-0.4-1.1-0.8-4.3-0.8-8.8c0-6.6-1.1-8.7-8.8-8.7H114.9z"/>
<polyline class="st0" points="147.6,197.8 147.6,147.6 164.1,147.6 164.1,186.1 179.1,186.1 179.1,197.8 147.6,197.8 "/>
<path class="st0" d="M265.3,198h-10.6l-0.6-5c-2.7,3.2-7.3,6.1-15.2,6.1c-12.8,0-24.4-8.3-24.4-25.8c0-16.1,10.1-27.1,26.3-27.1
	c12.1,0,21.8,6.3,23.8,18.6H249c-1.2-4.1-4.2-6.4-8.4-6.4c-6.5,0-9.6,5.9-9.6,14.7c0,7.1,2.2,13.6,10.5,13.6c3.4,0,7.6-2.3,8.4-5.8
	h-7.3v-10.9h22.6V198"/>
<path class="st0" d="M185.4,195"/>
<path class="st0" d="M195.2,162.7l-5.1,18h10.4L195.2,162.7 M168.9,197.8l18-50.3h16.8l18,50.3h-16.4l-2-6.6H187l-1.9,6.6H168.9z"/>
<path class="st1" d="M74,107.2H56.3c0,0-0.6,0.3-0.8,1c-0.2,0.9-0.9,2.5-2.9,5.2l-7.7-8.5c0.2,0.1,0.1,0.1,0,0
	C52.5,101.5,57,94.4,57,86c0-11.6-10.1-20.9-22.7-20.9c-12.5,0-22.7,9.4-22.7,20.9c0,5.7,2.9,11,6.9,14.8c-10.2,3.5-17,12.8-17,23.4
	c0,13.7,12.1,24.8,27,24.8c9.1,0,17.4-4.3,22.3-10.6l6.2,5.8l12.1-11.6l-5.9-7.1C63.2,125.5,73.5,116.3,74,107.2 M41,85
	c-0.2,1.8-1.3,2.8-2.3,4l-4.6,3.5l-3.7-3.3c-1.2-1.2-2.9-2-3.1-4.1c-0.3-3.8,3.1-6.9,6.9-6.9C37.9,78.1,41.4,81.2,41,85z
	 M34.1,130.6c-8.1,7-18.9-5.5-11.6-11.5l6.7-5.5l11.1,12.3L34.1,130.6z"/>
<path class="st2" d="M74,107.2H56.3c0,0-0.6,0.3-0.8,1c-0.2,0.9-0.9,2.5-2.9,5.2l-7.7-8.5c0.2,0.1,0.1,0.1,0,0
	C52.5,101.5,57,94.4,57,86c0-11.6-10.1-20.9-22.7-20.9c-12.5,0-22.7,9.4-22.7,20.9c0,5.7,2.9,11,6.9,14.8c-10.2,3.5-17,12.8-17,23.4
	c0,13.7,12.1,24.8,27,24.8c9.1,0,17.4-4.3,22.3-10.6l6.2,5.8l12.1-11.6l-5.9-7.1C63.2,125.5,73.5,116.3,74,107.2z M41,85
	c-0.2,1.8-1.3,2.8-2.3,4l-4.6,3.5l-3.7-3.3c-1.2-1.2-2.9-2-3.1-4.1c-0.3-3.8,3.1-6.9,6.9-6.9C37.9,78.1,41.4,81.2,41,85z
	 M34.1,130.6c-8.1,7-18.9-5.5-11.6-11.5l6.7-5.5l11.1,12.3L34.1,130.6z"/>
</svg>
