<?xml version="1.0" encoding="utf-8"?>
<!-- Generator: Adobe Illustrator 21.0.2, SVG Export Plug-In . SVG Version: 6.00 Build 0)  -->
<svg version="1.1" id="Ebene_1" xmlns="http://www.w3.org/2000/svg" xmlns:xlink="http://www.w3.org/1999/xlink" x="0px" y="0px"
	 viewBox="0 0 283.5 283.5" style="enable-background:new 0 0 283.5 283.5;" xml:space="preserve">
<style type="text/css">
	.st0{fill:#0074BE;}
</style>
<g>
	<g>
		<g>
			<g>
				<path class="st0" d="M146.8,191.3c-0.7,0-1.5-0.1-2.1-0.4l-12.3-5.1l-13.5,0c-1.5,0-2.9-0.6-3.9-1.6l-9.5-9.5L93,169.4
					c-1.4-0.6-2.5-1.7-3-3L84.8,154l-9.5-9.6c-1.1-1.1-1.6-2.5-1.6-4v-13.4l-5.1-12.5c-0.6-1.4-0.6-2.9,0-4.3l5.1-12.3l0-13.5
					c0-1.5,0.6-2.9,1.6-4l9.4-9.4l5.2-12.4c0.6-1.4,1.7-2.5,3-3l12.3-5.1l9.6-9.5c1.1-1.1,2.5-1.6,4-1.6h13.4l12.5-5.1
					c1.4-0.6,2.9-0.6,4.3,0l0,0l12.3,5.1l13.5,0c1.5,0,2.9,0.6,3.9,1.6l9.5,9.5l12.5,5.2c1.4,0.6,2.5,1.7,3,3l5.1,12.3l9.5,9.6
					c1.1,1.1,1.6,2.5,1.6,4V98l5.1,12.5c0.6,1.4,0.6,2.9,0,4.3l-5.1,12.4l0,13.5c0,1.5-0.6,2.9-1.6,4l-9.4,9.4l-5.2,12.5
					c-0.6,1.4-1.7,2.5-3,3l-12.3,5.1l-9.6,9.5c-1.1,1.1-2.5,1.6-4,1.6h-13.4l-12.5,5.1C148.2,191.1,147.5,191.3,146.8,191.3z
					 M118.8,44.7l-9.7,9.5c-0.5,0.5-1.1,0.9-1.8,1.2L95,60.6l-5.3,12.5c-0.3,0.7-0.7,1.3-1.2,1.8L79,84.4L78.9,98
					c0,0.7-0.1,1.4-0.4,2.1l-5.1,12.4l5.1,12.6c0.3,0.7,0.4,1.4,0.4,2.1v13.4l9.5,9.7c0.5,0.5,0.9,1.1,1.2,1.8l5.1,12.4l12.5,5.3
					c0.7,0.3,1.3,0.7,1.8,1.2l9.5,9.5l13.6,0.1c0.7,0,1.5,0.1,2.1,0.4l12.3,5.1l12.6-5.1c0.7-0.3,1.4-0.4,2.1-0.4h13.4l9.7-9.5
					c0.5-0.5,1.1-0.9,1.8-1.2l12.4-5.1l5.3-12.5c0.3-0.7,0.7-1.3,1.2-1.8l9.5-9.5l0.1-13.6c0-0.7,0.1-1.4,0.4-2.1l5.1-12.4
					l-5.1-12.6c-0.3-0.7-0.4-1.4-0.4-2.1V84.6l-9.5-9.7c-0.5-0.5-0.9-1.1-1.2-1.8l-5.1-12.4l-12.5-5.3c-0.7-0.3-1.3-0.7-1.8-1.2
					l-9.5-9.5l-13.6-0.1c-0.7,0-1.5-0.1-2.1-0.4l-12.3-5.1c-0.1,0-0.2,0-0.3,0l-12.3,5.1c-0.7,0.3-1.4,0.4-2.1,0.4H118.8z"/>
			</g>
		</g>
		<g>
			<g>
				<path class="st0" d="M146.8,165.5c-29.2,0-52.9-23.7-52.9-52.9c0-29.2,23.7-52.9,52.9-52.9c29.2,0,52.9,23.7,52.9,52.9
					C199.7,141.7,176,165.5,146.8,165.5z M146.8,64.9c-26.3,0-47.6,21.4-47.6,47.6c0,26.3,21.4,47.6,47.6,47.6
					c26.3,0,47.6-21.4,47.6-47.6C194.4,86.3,173,64.9,146.8,64.9z"/>
			</g>
		</g>
		<g>
			<g>
				<g>
					<polygon class="st0" points="106,265 106,173.1 111.2,173.1 111.2,257 146.9,242.2 182.3,256.8 182.3,174.4 187.6,174.4 
						187.6,264.7 146.9,247.9 					"/>
				</g>
			</g>
		</g>
	</g>
	<g>
		<g>
			<rect x="121.8" y="197" class="st0" width="5.3" height="37.9"/>
		</g>
	</g>
	<g>
		<g>
			<rect x="166.5" y="197" class="st0" width="5.3" height="37.9"/>
		</g>
	</g>
</g>
</svg>
